<svg width="233" height="57" viewBox="0 0 233 57" fill="none" xmlns="http://www.w3.org/2000/svg">
<rect width="232.256" height="55.8495" rx="27.9247" transform="matrix(1 -0.000753096 0.00124069 0.999999 0 0.174805)" fill="#ED743F"/>
<path d="M65.984 17.5084V31.9284C65.984 33.5337 65.4893 34.8217 64.5 35.7924C63.5107 36.7444 62.204 37.2204 60.58 37.2204C58.9373 37.2204 57.6213 36.7351 56.632 35.7644C55.6427 34.7751 55.148 33.4311 55.148 31.7324H57.696C57.7147 32.6844 57.9573 33.4591 58.424 34.0564C58.9093 34.6537 59.628 34.9524 60.58 34.9524C61.532 34.9524 62.2413 34.6724 62.708 34.1124C63.1747 33.5337 63.408 32.8057 63.408 31.9284V17.5084H65.984ZM77.6957 37.2764C76.2583 37.2764 74.9517 36.9497 73.7757 36.2964C72.6183 35.6431 71.7037 34.7191 71.0317 33.5244C70.3783 32.3111 70.0517 30.9111 70.0517 29.3244C70.0517 27.7564 70.3877 26.3751 71.0597 25.1804C71.7503 23.9671 72.6837 23.0431 73.8597 22.4084C75.0357 21.7551 76.3517 21.4284 77.8077 21.4284C79.2637 21.4284 80.5797 21.7551 81.7557 22.4084C82.9317 23.0431 83.8557 23.9577 84.5277 25.1524C85.2183 26.3471 85.5637 27.7377 85.5637 29.3244C85.5637 30.9111 85.209 32.3111 84.4997 33.5244C83.809 34.7191 82.8663 35.6431 81.6717 36.2964C80.477 36.9497 79.1517 37.2764 77.6957 37.2764ZM77.6957 35.0364C78.6103 35.0364 79.469 34.8217 80.2717 34.3924C81.0743 33.9631 81.7183 33.3191 82.2037 32.4604C82.7077 31.6017 82.9597 30.5564 82.9597 29.3244C82.9597 28.0924 82.717 27.0471 82.2317 26.1884C81.7463 25.3297 81.1117 24.6951 80.3277 24.2844C79.5437 23.8551 78.6943 23.6404 77.7797 23.6404C76.8463 23.6404 75.9877 23.8551 75.2037 24.2844C74.4383 24.6951 73.8223 25.3297 73.3557 26.1884C72.889 27.0471 72.6557 28.0924 72.6557 29.3244C72.6557 30.5751 72.8797 31.6297 73.3277 32.4884C73.7943 33.3471 74.4103 33.9911 75.1757 34.4204C75.941 34.8311 76.781 35.0364 77.6957 35.0364ZM90.2298 19.1884C89.7445 19.1884 89.3338 19.0204 88.9978 18.6844C88.6618 18.3484 88.4938 17.9377 88.4938 17.4524C88.4938 16.9671 88.6618 16.5564 88.9978 16.2204C89.3338 15.8844 89.7445 15.7164 90.2298 15.7164C90.6965 15.7164 91.0885 15.8844 91.4058 16.2204C91.7418 16.5564 91.9098 16.9671 91.9098 17.4524C91.9098 17.9377 91.7418 18.3484 91.4058 18.6844C91.0885 19.0204 90.6965 19.1884 90.2298 19.1884ZM91.4618 21.6804V37.0244H88.9138V21.6804H91.4618ZM103.28 21.4004C105.147 21.4004 106.659 21.9697 107.816 23.1084C108.974 24.2284 109.552 25.8524 109.552 27.9804V37.0244H107.032V28.3444C107.032 26.8137 106.65 25.6471 105.884 24.8444C105.119 24.0231 104.074 23.6124 102.748 23.6124C101.404 23.6124 100.331 24.0324 99.5284 24.8724C98.7444 25.7124 98.3524 26.9351 98.3524 28.5404V37.0244H95.8044V21.6804H98.3524V23.8644C98.8564 23.0804 99.5378 22.4737 100.396 22.0444C101.274 21.6151 102.235 21.4004 103.28 21.4004ZM136.523 37.0244H133.975L123.727 21.4844V37.0244H121.179V17.4804H123.727L133.975 32.9924V17.4804H136.523V37.0244ZM147.559 37.2764C146.122 37.2764 144.815 36.9497 143.639 36.2964C142.482 35.6431 141.567 34.7191 140.895 33.5244C140.242 32.3111 139.915 30.9111 139.915 29.3244C139.915 27.7564 140.251 26.3751 140.923 25.1804C141.614 23.9671 142.547 23.0431 143.723 22.4084C144.899 21.7551 146.215 21.4284 147.671 21.4284C149.127 21.4284 150.443 21.7551 151.619 22.4084C152.795 23.0431 153.719 23.9577 154.391 25.1524C155.082 26.3471 155.427 27.7377 155.427 29.3244C155.427 30.9111 155.072 32.3111 154.363 33.5244C153.672 34.7191 152.73 35.6431 151.535 36.2964C150.34 36.9497 149.015 37.2764 147.559 37.2764ZM147.559 35.0364C148.474 35.0364 149.332 34.8217 150.135 34.3924C150.938 33.9631 151.582 33.3191 152.067 32.4604C152.571 31.6017 152.823 30.5564 152.823 29.3244C152.823 28.0924 152.58 27.0471 152.095 26.1884C151.61 25.3297 150.975 24.6951 150.191 24.2844C149.407 23.8551 148.558 23.6404 147.643 23.6404C146.71 23.6404 145.851 23.8551 145.067 24.2844C144.302 24.6951 143.686 25.3297 143.219 26.1884C142.752 27.0471 142.519 28.0924 142.519 29.3244C142.519 30.5751 142.743 31.6297 143.191 32.4884C143.658 33.3471 144.274 33.9911 145.039 34.4204C145.804 34.8311 146.644 35.0364 147.559 35.0364ZM179.217 21.6804L174.429 37.0244H171.797L168.101 24.8444L164.405 37.0244H161.773L156.957 21.6804H159.561L163.089 34.5604L166.897 21.6804H169.501L173.225 34.5884L176.697 21.6804H179.217Z" fill="black"/>
</svg>
