<svg width="259" height="56" viewBox="0 0 259 56" fill="none" xmlns="http://www.w3.org/2000/svg">
<rect width="259" height="56" fill="#ED743F"/>
<path d="M31.232 17.484C33.36 17.484 35.1987 17.8853 36.748 18.688C38.316 19.472 39.5107 20.6013 40.332 22.076C41.172 23.5507 41.592 25.2867 41.592 27.284C41.592 29.2813 41.172 31.0173 40.332 32.492C39.5107 33.948 38.316 35.068 36.748 35.852C35.1987 36.6173 33.36 37 31.232 37H25.156V17.484H31.232ZM31.232 34.9C33.752 34.9 35.6747 34.2373 37 32.912C38.3253 31.568 38.988 29.692 38.988 27.284C38.988 24.8573 38.316 22.9627 36.972 21.6C35.6467 20.2373 33.7333 19.556 31.232 19.556H27.704V34.9H31.232ZM51.6449 37.252C50.2075 37.252 48.9009 36.9253 47.7249 36.272C46.5675 35.6187 45.6529 34.6947 44.9809 33.5C44.3275 32.2867 44.0009 30.8867 44.0009 29.3C44.0009 27.732 44.3369 26.3507 45.0089 25.156C45.6995 23.9427 46.6329 23.0187 47.8089 22.384C48.9849 21.7307 50.3009 21.404 51.7569 21.404C53.2129 21.404 54.5289 21.7307 55.7049 22.384C56.8809 23.0187 57.8049 23.9333 58.4769 25.128C59.1675 26.3227 59.5129 27.7133 59.5129 29.3C59.5129 30.8867 59.1582 32.2867 58.4489 33.5C57.7582 34.6947 56.8155 35.6187 55.6209 36.272C54.4262 36.9253 53.1009 37.252 51.6449 37.252ZM51.6449 35.012C52.5595 35.012 53.4182 34.7973 54.2209 34.368C55.0235 33.9387 55.6675 33.2947 56.1529 32.436C56.6569 31.5773 56.9089 30.532 56.9089 29.3C56.9089 28.068 56.6662 27.0227 56.1809 26.164C55.6955 25.3053 55.0609 24.6707 54.2769 24.26C53.4929 23.8307 52.6435 23.616 51.7289 23.616C50.7955 23.616 49.9369 23.8307 49.1529 24.26C48.3875 24.6707 47.7715 25.3053 47.3049 26.164C46.8382 27.0227 46.6049 28.068 46.6049 29.3C46.6049 30.5507 46.8289 31.6053 47.2769 32.464C47.7435 33.3227 48.3595 33.9667 49.1249 34.396C49.8902 34.8067 50.7302 35.012 51.6449 35.012ZM83.303 21.656L78.515 37H75.883L72.187 24.82L68.491 37H65.859L61.043 21.656H63.647L67.175 34.536L70.983 21.656H73.587L77.311 34.564L80.783 21.656H83.303ZM93.3078 21.376C95.1744 21.376 96.6864 21.9453 97.8438 23.084C99.0011 24.204 99.5798 25.828 99.5798 27.956V37H97.0598V28.32C97.0598 26.7893 96.6771 25.6227 95.9118 24.82C95.1464 23.9987 94.1011 23.588 92.7758 23.588C91.4318 23.588 90.3584 24.008 89.5558 24.848C88.7718 25.688 88.3798 26.9107 88.3798 28.516V37H85.8318V21.656H88.3798V23.84C88.8838 23.056 89.5651 22.4493 90.4238 22.02C91.3011 21.5907 92.2624 21.376 93.3078 21.376ZM106.29 16.28V37H103.742V16.28H106.29ZM117.325 37.252C115.887 37.252 114.581 36.9253 113.405 36.272C112.247 35.6187 111.333 34.6947 110.661 33.5C110.007 32.2867 109.681 30.8867 109.681 29.3C109.681 27.732 110.017 26.3507 110.689 25.156C111.379 23.9427 112.313 23.0187 113.489 22.384C114.665 21.7307 115.981 21.404 117.437 21.404C118.893 21.404 120.209 21.7307 121.385 22.384C122.561 23.0187 123.485 23.9333 124.157 25.128C124.847 26.3227 125.193 27.7133 125.193 29.3C125.193 30.8867 124.838 32.2867 124.129 33.5C123.438 34.6947 122.495 35.6187 121.301 36.272C120.106 36.9253 118.781 37.252 117.325 37.252ZM117.325 35.012C118.239 35.012 119.098 34.7973 119.901 34.368C120.703 33.9387 121.347 33.2947 121.833 32.436C122.337 31.5773 122.589 30.532 122.589 29.3C122.589 28.068 122.346 27.0227 121.861 26.164C121.375 25.3053 120.741 24.6707 119.957 24.26C119.173 23.8307 118.323 23.616 117.409 23.616C116.475 23.616 115.617 23.8307 114.833 24.26C114.067 24.6707 113.451 25.3053 112.985 26.164C112.518 27.0227 112.285 28.068 112.285 29.3C112.285 30.5507 112.509 31.6053 112.957 32.464C113.423 33.3227 114.039 33.9667 114.805 34.396C115.57 34.8067 116.41 35.012 117.325 35.012ZM127.591 29.272C127.591 27.704 127.908 26.332 128.543 25.156C129.177 23.9613 130.045 23.0373 131.147 22.384C132.267 21.7307 133.508 21.404 134.871 21.404C136.215 21.404 137.381 21.6933 138.371 22.272C139.36 22.8507 140.097 23.5787 140.583 24.456V21.656H143.159V37H140.583V34.144C140.079 35.04 139.323 35.7867 138.315 36.384C137.325 36.9627 136.168 37.252 134.843 37.252C133.48 37.252 132.248 36.916 131.147 36.244C130.045 35.572 129.177 34.6293 128.543 33.416C127.908 32.2027 127.591 30.8213 127.591 29.272ZM140.583 29.3C140.583 28.1427 140.349 27.1347 139.883 26.276C139.416 25.4173 138.781 24.764 137.979 24.316C137.195 23.8493 136.327 23.616 135.375 23.616C134.423 23.616 133.555 23.84 132.771 24.288C131.987 24.736 131.361 25.3893 130.895 26.248C130.428 27.1067 130.195 28.1147 130.195 29.272C130.195 30.448 130.428 31.4747 130.895 32.352C131.361 33.2107 131.987 33.8733 132.771 34.34C133.555 34.788 134.423 35.012 135.375 35.012C136.327 35.012 137.195 34.788 137.979 34.34C138.781 33.8733 139.416 33.2107 139.883 32.352C140.349 31.4747 140.583 30.4573 140.583 29.3ZM146.513 29.272C146.513 27.704 146.83 26.332 147.465 25.156C148.099 23.9613 148.967 23.0373 150.069 22.384C151.189 21.7307 152.439 21.404 153.821 21.404C155.015 21.404 156.126 21.684 157.153 22.244C158.179 22.7853 158.963 23.504 159.505 24.4V16.28H162.081V37H159.505V34.116C159.001 35.0307 158.254 35.7867 157.265 36.384C156.275 36.9627 155.118 37.252 153.793 37.252C152.43 37.252 151.189 36.916 150.069 36.244C148.967 35.572 148.099 34.6293 147.465 33.416C146.83 32.2027 146.513 30.8213 146.513 29.272ZM159.505 29.3C159.505 28.1427 159.271 27.1347 158.805 26.276C158.338 25.4173 157.703 24.764 156.901 24.316C156.117 23.8493 155.249 23.616 154.297 23.616C153.345 23.616 152.477 23.84 151.693 24.288C150.909 24.736 150.283 25.3893 149.817 26.248C149.35 27.1067 149.117 28.1147 149.117 29.272C149.117 30.448 149.35 31.4747 149.817 32.352C150.283 33.2107 150.909 33.8733 151.693 34.34C152.477 34.788 153.345 35.012 154.297 35.012C155.249 35.012 156.117 34.788 156.901 34.34C157.703 33.8733 158.338 33.2107 158.805 32.352C159.271 31.4747 159.505 30.4573 159.505 29.3ZM189.195 37H186.647L176.399 21.46V37H173.851V17.456H176.399L186.647 32.968V17.456H189.195V37ZM200.231 37.252C198.793 37.252 197.487 36.9253 196.311 36.272C195.153 35.6187 194.239 34.6947 193.567 33.5C192.913 32.2867 192.587 30.8867 192.587 29.3C192.587 27.732 192.923 26.3507 193.595 25.156C194.285 23.9427 195.219 23.0187 196.395 22.384C197.571 21.7307 198.887 21.404 200.343 21.404C201.799 21.404 203.115 21.7307 204.291 22.384C205.467 23.0187 206.391 23.9333 207.063 25.128C207.753 26.3227 208.099 27.7133 208.099 29.3C208.099 30.8867 207.744 32.2867 207.035 33.5C206.344 34.6947 205.401 35.6187 204.207 36.272C203.012 36.9253 201.687 37.252 200.231 37.252ZM200.231 35.012C201.145 35.012 202.004 34.7973 202.807 34.368C203.609 33.9387 204.253 33.2947 204.739 32.436C205.243 31.5773 205.495 30.532 205.495 29.3C205.495 28.068 205.252 27.0227 204.767 26.164C204.281 25.3053 203.647 24.6707 202.863 24.26C202.079 23.8307 201.229 23.616 200.315 23.616C199.381 23.616 198.523 23.8307 197.739 24.26C196.973 24.6707 196.357 25.3053 195.891 26.164C195.424 27.0227 195.191 28.068 195.191 29.3C195.191 30.5507 195.415 31.6053 195.863 32.464C196.329 33.3227 196.945 33.9667 197.711 34.396C198.476 34.8067 199.316 35.012 200.231 35.012ZM231.889 21.656L227.101 37H224.469L220.773 24.82L217.077 37H214.445L209.629 21.656H212.233L215.761 34.536L219.569 21.656H222.173L225.897 34.564L229.369 21.656H231.889Z" fill="white"/>
</svg>
