<svg width="233" height="57" viewBox="0 0 233 57" fill="none" xmlns="http://www.w3.org/2000/svg">
<rect width="232.256" height="55.8495" rx="27.9247" transform="matrix(1 -0.000753096 0.00124069 0.999999 0 0.174927)" fill="#ED743F"/>
<path d="M65.984 17.5083V31.9283C65.984 33.5336 65.4893 34.8216 64.5 35.7923C63.5107 36.7443 62.204 37.2203 60.58 37.2203C58.9373 37.2203 57.6213 36.735 56.632 35.7643C55.6427 34.775 55.148 33.431 55.148 31.7323H57.696C57.7147 32.6843 57.9573 33.459 58.424 34.0563C58.9093 34.6536 59.628 34.9523 60.58 34.9523C61.532 34.9523 62.2413 34.6723 62.708 34.1123C63.1747 33.5336 63.408 32.8056 63.408 31.9283V17.5083H65.984ZM77.6957 37.2763C76.2583 37.2763 74.9517 36.9496 73.7757 36.2963C72.6183 35.643 71.7037 34.719 71.0317 33.5243C70.3783 32.311 70.0517 30.911 70.0517 29.3243C70.0517 27.7563 70.3877 26.375 71.0597 25.1803C71.7503 23.967 72.6837 23.043 73.8597 22.4083C75.0357 21.755 76.3517 21.4283 77.8077 21.4283C79.2637 21.4283 80.5797 21.755 81.7557 22.4083C82.9317 23.043 83.8557 23.9576 84.5277 25.1523C85.2183 26.347 85.5637 27.7376 85.5637 29.3243C85.5637 30.911 85.209 32.311 84.4997 33.5243C83.809 34.719 82.8663 35.643 81.6717 36.2963C80.477 36.9496 79.1517 37.2763 77.6957 37.2763ZM77.6957 35.0363C78.6103 35.0363 79.469 34.8216 80.2717 34.3923C81.0743 33.963 81.7183 33.319 82.2037 32.4603C82.7077 31.6016 82.9597 30.5563 82.9597 29.3243C82.9597 28.0923 82.717 27.047 82.2317 26.1883C81.7463 25.3296 81.1117 24.695 80.3277 24.2843C79.5437 23.855 78.6943 23.6403 77.7797 23.6403C76.8463 23.6403 75.9877 23.855 75.2037 24.2843C74.4383 24.695 73.8223 25.3296 73.3557 26.1883C72.889 27.047 72.6557 28.0923 72.6557 29.3243C72.6557 30.575 72.8797 31.6296 73.3277 32.4883C73.7943 33.347 74.4103 33.991 75.1757 34.4203C75.941 34.831 76.781 35.0363 77.6957 35.0363ZM90.2298 19.1883C89.7445 19.1883 89.3338 19.0203 88.9978 18.6843C88.6618 18.3483 88.4938 17.9376 88.4938 17.4523C88.4938 16.967 88.6618 16.5563 88.9978 16.2203C89.3338 15.8843 89.7445 15.7163 90.2298 15.7163C90.6965 15.7163 91.0885 15.8843 91.4058 16.2203C91.7418 16.5563 91.9098 16.967 91.9098 17.4523C91.9098 17.9376 91.7418 18.3483 91.4058 18.6843C91.0885 19.0203 90.6965 19.1883 90.2298 19.1883ZM91.4618 21.6803V37.0243H88.9138V21.6803H91.4618ZM103.28 21.4003C105.147 21.4003 106.659 21.9696 107.816 23.1083C108.974 24.2283 109.552 25.8523 109.552 27.9803V37.0243H107.032V28.3443C107.032 26.8136 106.65 25.647 105.884 24.8443C105.119 24.023 104.074 23.6123 102.748 23.6123C101.404 23.6123 100.331 24.0323 99.5284 24.8723C98.7444 25.7123 98.3524 26.935 98.3524 28.5403V37.0243H95.8044V21.6803H98.3524V23.8643C98.8564 23.0803 99.5378 22.4736 100.396 22.0443C101.274 21.615 102.235 21.4003 103.28 21.4003ZM136.523 37.0243H133.975L123.727 21.4843V37.0243H121.179V17.4803H123.727L133.975 32.9923V17.4803H136.523V37.0243ZM147.559 37.2763C146.122 37.2763 144.815 36.9496 143.639 36.2963C142.482 35.643 141.567 34.719 140.895 33.5243C140.242 32.311 139.915 30.911 139.915 29.3243C139.915 27.7563 140.251 26.375 140.923 25.1803C141.614 23.967 142.547 23.043 143.723 22.4083C144.899 21.755 146.215 21.4283 147.671 21.4283C149.127 21.4283 150.443 21.755 151.619 22.4083C152.795 23.043 153.719 23.9576 154.391 25.1523C155.082 26.347 155.427 27.7376 155.427 29.3243C155.427 30.911 155.072 32.311 154.363 33.5243C153.672 34.719 152.73 35.643 151.535 36.2963C150.34 36.9496 149.015 37.2763 147.559 37.2763ZM147.559 35.0363C148.474 35.0363 149.332 34.8216 150.135 34.3923C150.938 33.963 151.582 33.319 152.067 32.4603C152.571 31.6016 152.823 30.5563 152.823 29.3243C152.823 28.0923 152.58 27.047 152.095 26.1883C151.61 25.3296 150.975 24.695 150.191 24.2843C149.407 23.855 148.558 23.6403 147.643 23.6403C146.71 23.6403 145.851 23.855 145.067 24.2843C144.302 24.695 143.686 25.3296 143.219 26.1883C142.752 27.047 142.519 28.0923 142.519 29.3243C142.519 30.575 142.743 31.6296 143.191 32.4883C143.658 33.347 144.274 33.991 145.039 34.4203C145.804 34.831 146.644 35.0363 147.559 35.0363ZM179.217 21.6803L174.429 37.0243H171.797L168.101 24.8443L164.405 37.0243H161.773L156.957 21.6803H159.561L163.089 34.5603L166.897 21.6803H169.501L173.225 34.5883L176.697 21.6803H179.217Z" fill="black"/>
</svg>
