<svg width="65" height="64" viewBox="0 0 65 64" fill="none" xmlns="http://www.w3.org/2000/svg">
<path d="M11.7844 0C5.25635 0 0 5.21248 0 11.686V52.314C0 58.7876 5.25635 64.0001 11.7844 64.0001H33.9898V38.98H27.3181V29.972H33.9898V22.276C33.9898 16.2296 37.9317 10.678 47.0124 10.678C50.6891 10.678 53.4078 11.028 53.4078 11.028L53.194 19.4401C53.194 19.4401 50.4212 19.4141 47.3956 19.4141C44.121 19.4141 43.5959 20.9103 43.5959 23.3941V29.9721H53.4542L53.0246 38.9801H43.5959V64.0001H52.7543C59.2823 64.0001 64.5387 58.7877 64.5387 52.3141V11.6861C64.5387 5.21254 59.2823 6.4e-05 52.7543 6.4e-05H11.7843L11.7844 0Z" fill="black"/>
</svg>
