<svg width="68" height="67" viewBox="0 0 68 67" fill="none" xmlns="http://www.w3.org/2000/svg">
<g clip-path="url(#clip0_1_188)">
<path d="M50.6297 0.0732422H16.9344C7.65115 0.0732422 0.0984497 7.53771 0.0984497 16.7126V50.2869C0.0984497 59.4612 7.65115 66.9264 16.9344 66.9264H50.6297C59.913 66.9264 67.4655 59.4611 67.4655 50.2869V16.7125C67.4655 7.53771 59.913 0.0732422 50.6297 0.0732422ZM61.2301 50.2868C61.2301 56.0631 56.475 60.7635 50.6297 60.7635H16.9345C11.0893 60.7635 6.33406 56.0631 6.33406 50.2868V28.6024H19.654C18.6816 30.6421 18.1346 32.9174 18.1346 35.317C18.1346 44.0325 25.3086 51.1221 34.1268 51.1221C42.9447 51.1221 50.1188 44.0325 50.1188 35.317C50.1188 32.9174 49.572 30.642 48.5993 28.6024H61.23V50.2868H61.2301ZM27.4881 35.3171C27.4881 31.6998 30.4661 28.7563 34.1268 28.7563C37.7877 28.7563 40.7655 31.6999 40.7655 35.3171C40.7655 38.9352 37.7877 41.8782 34.1268 41.8782C30.4661 41.8781 27.4881 38.9352 27.4881 35.3171ZM61.2301 22.4398H43.3815C40.7667 20.5994 37.5741 19.5122 34.1268 19.5122C30.6796 19.5122 27.4866 20.5994 24.8724 22.4398H6.33406V16.7126C6.33406 10.9356 11.0893 6.23597 16.9345 6.23597H50.6297C56.475 6.23597 61.2301 10.9356 61.2301 16.7126V22.4398ZM54.4733 9.97356H48.6932C47.6641 9.97356 46.8226 10.8056 46.8226 11.8224V17.5352C46.8226 18.5519 47.664 19.384 48.6932 19.384H54.4733C55.5024 19.384 56.344 18.5519 56.344 17.5352V11.8224C56.344 10.8056 55.5024 9.97356 54.4733 9.97356Z" fill="black"/>
</g>
<defs>
<clipPath id="clip0_1_188">
<rect width="67.5639" height="67" fill="white"/>
</clipPath>
</defs>
</svg>
