<svg width="68" height="67" viewBox="0 0 68 67" fill="none" xmlns="http://www.w3.org/2000/svg">
<path d="M56.51 2.21556L52.1877 6.65589L33.7842 24.6392L15.3807 6.47828L11.0584 2.03795C10.0402 0.930285 8.79715 0.23979 7.48337 0.0520089C6.1696 -0.135773 4.84279 0.187411 3.66733 0.981521C2.49188 1.77563 1.51942 3.00577 0.87045 4.51953C0.221477 6.0333 -0.0754951 7.76417 0.0163247 9.49771V60.9611C0.0163247 62.5628 0.500169 64.0988 1.36142 65.2313C2.22266 66.3638 3.39077 67 4.60875 67H15.3807V32.7206L33.7842 50.8816L52.1877 32.7206V67H62.9596C64.1776 67 65.3457 66.3638 66.207 65.2313C67.0682 64.0988 67.5521 62.5628 67.5521 60.9611V9.49771C67.6155 7.77913 67.2978 6.07334 66.6378 4.58769C65.9778 3.10203 65.0037 1.9005 63.8341 1.12915C62.6645 0.35779 61.3496 0.04983 60.0494 0.242699C58.7492 0.435567 57.5195 1.12096 56.51 2.21556Z" fill="black"/>
</svg>
