<svg width="65" height="64" viewBox="0 0 65 64" fill="none" xmlns="http://www.w3.org/2000/svg">
<path d="M64.5387 7.58099C62.7415 10.8444 60.5366 13.6264 57.924 15.9268C57.9498 16.5437 57.9627 17.2411 57.9627 18.0188C57.9627 22.3397 57.4467 26.6659 56.4146 30.9974C55.3825 35.3289 53.806 39.4748 51.685 43.4353C49.564 47.3958 47.0376 50.9045 44.1056 53.9613C41.1737 57.0181 37.6493 59.4554 33.5326 61.2733C29.4158 63.0911 25.0038 64.0001 20.2964 64.0001C12.9499 64.0001 6.18438 61.5789 0 56.7365C1.09765 56.8856 2.1504 56.9602 3.15823 56.9602C9.2957 56.9602 14.7775 54.6524 19.6035 50.0369C16.7418 49.9728 14.179 48.8974 11.915 46.8107C9.65106 44.724 8.09304 42.0576 7.24098 38.8115C8.08319 39.0073 8.91441 39.1052 9.73466 39.1052C10.9154 39.1052 12.0771 38.9172 13.22 38.5412C10.1661 37.7946 7.63266 35.9377 5.61961 32.9707C3.60664 30.0037 2.60016 26.5792 2.60016 22.6972V22.4972C4.47466 23.7642 6.4741 24.4381 8.59849 24.519C6.78939 23.0467 5.35504 21.1267 4.29545 18.7591C3.23578 16.3915 2.70595 13.8293 2.70595 11.0726C2.70595 8.16514 3.30275 5.45777 4.49634 2.95046C7.8174 7.9257 11.8416 11.9021 16.5688 14.8796C21.2962 17.8571 26.3677 19.5107 31.7834 19.8404C31.5524 18.6653 31.4367 17.4389 31.4363 16.1614C31.4363 11.7008 32.7293 7.89205 35.3155 4.73523C37.9016 1.57841 41.0217 0 44.6756 0C48.5011 0 51.7234 1.7005 54.3425 5.1015C57.3349 4.37792 60.1367 3.06914 62.748 1.17517C61.742 5.04034 59.8034 8.02206 56.9323 10.1203C59.5711 9.73751 62.1066 8.89107 64.5386 7.58099H64.5387Z" fill="black"/>
</svg>
